<svg width="190" height="48" viewBox="0 0 190 48" fill="none" xmlns="http://www.w3.org/2000/svg">
  <rect x="2" y="2" width="44" height="44" rx="14" fill="url(#g)"/>
  <path d="M15 15h18.5c2.8 0 4.7 3 3.3 5.4L25.3 40h-7.1l6.3-10.7H15V23h13.3l2.4-4H15v-4Z" fill="white"/>
  <path d="M61 15.5h10.3c6.8 0 11.2 3.7 11.2 9.4 0 5.8-4.4 9.6-11.2 9.6H61v-19Zm10 14.2c3.5 0 5.6-1.8 5.6-4.8s-2.1-4.7-5.6-4.7h-4.2v9.5H71Z" fill="#061B3A"/>
  <path d="M86.3 15.5h15.4v4.5H92v2.8h8.8v4.2H92v3h9.9v4.5H86.3v-19Zm19.5 0h5.8l7.5 10.1V15.5h5.7v19h-5.4l-7.9-10.6v10.6h-5.7v-19Zm23.2 0h15.6v4.6h-9.8v3.3h8.8v4.4h-8.8v6.7H129v-19Zm19.3 0h5.8v19h-5.8v-19Z" fill="#061B3A"/>
  <defs><linearGradient id="g" x1="2" y1="2" x2="46" y2="46" gradientUnits="userSpaceOnUse"><stop stop-color="#1359D1"/><stop offset="1" stop-color="#0EA58D"/></linearGradient></defs>
</svg>
